<!--?xml version="1.0" encoding="utf-8"?-->
<!-- Generator: Adobe Illustrator 18.1.1, SVG Export Plug-In . SVG Version: 6.00 Build 0)  -->

<svg version="1.1" id="_x32_" xmlns="http://www.w3.org/2000/svg" xmlns:xlink="http://www.w3.org/1999/xlink" x="0px" y="0px" viewBox="0 0 512 512" style="width: 64px; height: 64px; opacity: 1;" xml:space="preserve">
<style type="text/css">
	.st0{fill:#4B4B4B;}
</style>
<g>
	<path class="st0" d="M442.139,264.738c-1.682-41.504-18.264-78.732-44.338-106.974l-13.881,23.718
		c19.15,23.222,31.137,52.57,32.35,84.734c2.31,30.056-3.542,68.905-33.634,105.22c-14.962,18.061-20.266,42.213-20.266,61.477
		v53.181H210.406v-33.598c0,0-20.956,5.737-38.689,5.737c-17.724,0-23.78-4.054-27.852-22.788
		c-2.7-12.377-14.502-65.691-14.502-65.691l-23.177-5.8c-4.224-1.053-7.739-3.966-9.562-7.923
		c-1.824-3.948-1.754-8.516,0.195-12.412c0,0,25.355-51.667,35.917-72.022c0.018-78.324,63.513-141.81,141.838-141.81
		c3.63,0,7.197,0.266,10.756,0.53l8.49-25.249c-6.32-0.717-12.722-1.187-19.246-1.187c-90.294,0-164.165,71.72-167.618,161.209
		c-11.571,22.646-32.438,65.177-33.385,67.125c-5.41,10.783-5.613,23.496-0.47,34.651c5.118,11.137,14.882,19.238,26.79,22.212
		l7.64,1.921c3.701,16.724,9.278,41.938,11.022,49.95c6.578,30.278,22.478,43.186,53.164,43.186c4.249,0,8.57-0.248,12.784-0.664
		v2.621V512h25.905h151.965h25.905v-25.904v-53.181c0-17.334,5.356-34.138,14.307-44.948
		C439.456,343.461,444.485,296.486,442.139,264.738z" style="fill: rgb(202, 140, 220);"></path>
	<path class="st0" d="M313.625,202.784c8.295,3.771,14.891,1.46,19.813-6.852l81.325-138.907c1.532-2.488,3.364-6.109,5.534-10.872
		c3.373-7.402,3.877-15.29,1.558-23.701c-2.329-8.401-8.163-14.722-17.539-18.981c-9.721-4.418-18.441-4.612-26.196-0.62
		c-7.711,3.842-13.192,9.393-16.485,16.618c-2.036,4.427-3.541,8.189-4.577,11.288l-51.296,152.559
		c-0.938,3.311-0.743,6.967,0.576,11.004C307.632,198.34,310.066,201.172,313.625,202.784z" style="fill: rgb(202, 140, 220);"></path>
	<path class="st0" d="M279.646,221.163c-8.349,3.134-14.404,8.817-18.14,17.034c-3.586,7.897-3.914,16.201-0.921,24.877
		c3.054,8.544,8.8,14.723,17.184,18.529c8.367,3.816,16.742,4.144,25.108,1.01c8.385-3.125,14.466-8.88,18.282-17.273
		c3.816-8.366,4.161-16.751,1.019-25.116c-3.046-8.136-8.844-14.156-17.388-18.034C296.423,218.366,288.031,218.037,279.646,221.163
		z" style="fill: rgb(202, 140, 220);"></path>
</g>
</svg>
